<svg data-v-423bf9ae="" xmlns="http://www.w3.org/2000/svg" viewBox="0 0 193.03571756329399 60" class="font"><!----><!----><!----><g data-v-423bf9ae="" id="a2b2a514-e5c8-4a73-9974-71cee6be7e67" fill="black" transform="matrix(5.952380997433594,0,0,5.952380997433594,-0.654764700864007,-18.75000118641627)"><path d="M0.41 13.09L0.41 13.09Q0.29 13.09 0.20 13.00L0.20 13.00L0.20 13.00Q0.11 12.91 0.11 12.80L0.11 12.80L0.11 12.80Q0.11 12.71 0.13 12.67L0.13 12.67L3.39 3.70L3.39 3.70Q3.53 3.29 3.95 3.29L3.95 3.29L6.13 3.29L6.13 3.29Q6.55 3.29 6.69 3.70L6.69 3.70L9.95 12.67L9.95 12.67Q9.97 12.71 9.97 12.80L9.97 12.80L9.97 12.80Q9.97 12.91 9.88 13.00L9.88 13.00L9.88 13.00Q9.79 13.09 9.67 13.09L9.67 13.09L7.85 13.09L7.85 13.09Q7.52 13.09 7.38 12.78L7.38 12.78L6.87 11.42L3.21 11.42L2.70 12.78L2.70 12.78Q2.56 13.09 2.23 13.09L2.23 13.09L0.41 13.09ZM5.04 5.75L3.79 9.32L6.29 9.32L5.04 5.75ZM13.93 13.23L13.93 13.23Q12.78 13.23 12.01 12.91L12.01 12.91L12.01 12.91Q11.24 12.59 10.87 12.14L10.87 12.14L10.87 12.14Q10.50 11.69 10.50 11.33L10.50 11.33L10.50 11.33Q10.50 11.19 10.61 11.09L10.61 11.09L10.61 11.09Q10.71 11.00 10.84 11.00L10.84 11.00L12.53 11.00L12.53 11.00Q12.61 11.00 12.67 11.06L12.67 11.06L12.67 11.06Q12.91 11.21 12.94 11.24L12.94 11.24L12.94 11.24Q13.20 11.44 13.43 11.54L13.43 11.54L13.43 11.54Q13.66 11.65 13.99 11.65L13.99 11.65L13.99 11.65Q14.36 11.65 14.61 11.50L14.61 11.50L14.61 11.50Q14.85 11.35 14.85 11.09L14.85 11.09L14.85 11.09Q14.85 10.86 14.72 10.72L14.72 10.72L14.72 10.72Q14.59 10.58 14.22 10.45L14.22 10.45L14.22 10.45Q13.85 10.32 13.09 10.18L13.09 10.18L13.09 10.18Q10.67 9.69 10.67 7.94L10.67 7.94L10.67 7.94Q10.67 7.36 11.04 6.84L11.04 6.84L11.04 6.84Q11.41 6.31 12.13 5.99L12.13 5.99L12.13 5.99Q12.85 5.67 13.86 5.67L13.86 5.67L13.86 5.67Q14.88 5.67 15.63 5.98L15.63 5.98L15.63 5.98Q16.38 6.30 16.77 6.74L16.77 6.74L16.77 6.74Q17.16 7.18 17.16 7.55L17.16 7.55L17.16 7.55Q17.16 7.67 17.07 7.77L17.07 7.77L17.07 7.77Q16.98 7.87 16.86 7.87L16.86 7.87L15.32 7.87L15.32 7.87Q15.19 7.87 15.12 7.81L15.12 7.81L15.12 7.81Q14.95 7.73 14.78 7.60L14.78 7.60L14.78 7.60Q14.53 7.43 14.34 7.34L14.34 7.34L14.34 7.34Q14.15 7.25 13.86 7.25L13.86 7.25L13.86 7.25Q13.51 7.25 13.31 7.41L13.31 7.41L13.31 7.41Q13.12 7.56 13.12 7.80L13.12 7.80L13.12 7.80Q13.12 8.01 13.24 8.14L13.24 8.14L13.24 8.14Q13.36 8.27 13.73 8.40L13.73 8.40L13.73 8.40Q14.10 8.53 14.85 8.67L14.85 8.67L14.85 8.67Q16.23 8.90 16.85 9.51L16.85 9.51L16.85 9.51Q17.47 10.12 17.47 10.93L17.47 10.93L17.47 10.93Q17.47 11.98 16.54 12.61L16.54 12.61L16.54 12.61Q15.61 13.23 13.93 13.23L13.93 13.23ZM22.09 13.23L22.09 13.23Q20.38 13.23 19.40 12.31L19.40 12.31L19.40 12.31Q18.42 11.40 18.40 9.65L18.40 9.65L18.40 9.21L18.40 9.21Q18.45 7.55 19.43 6.61L19.43 6.61L19.43 6.61Q20.41 5.67 22.08 5.67L22.08 5.67L22.08 5.67Q23.28 5.67 24.12 6.15L24.12 6.15L24.12 6.15Q24.95 6.64 25.36 7.48L25.36 7.48L25.36 7.48Q25.77 8.33 25.77 9.41L25.77 9.41L25.77 9.76L25.77 9.76Q25.77 9.91 25.67 10.02L25.67 10.02L25.67 10.02Q25.56 10.12 25.41 10.12L25.41 10.12L20.97 10.12L20.97 10.21L20.97 10.21Q20.99 10.84 21.27 11.22L21.27 11.22L21.27 11.22Q21.55 11.61 22.06 11.61L22.06 11.61L22.06 11.61Q22.40 11.61 22.60 11.47L22.60 11.47L22.60 11.47Q22.81 11.34 22.99 11.13L22.99 11.13L22.99 11.13Q23.11 10.99 23.19 10.96L23.19 10.96L23.19 10.96Q23.27 10.92 23.44 10.92L23.44 10.92L25.27 10.92L25.27 10.92Q25.40 10.92 25.49 11.00L25.49 11.00L25.49 11.00Q25.58 11.07 25.58 11.19L25.58 11.19L25.58 11.19Q25.58 11.55 25.16 12.04L25.16 12.04L25.16 12.04Q24.75 12.53 23.96 12.88L23.96 12.88L23.96 12.88Q23.17 13.23 22.09 13.23L22.09 13.23ZM20.97 8.69L23.20 8.69L23.20 8.67L23.20 8.67Q23.20 7.99 22.90 7.62L22.90 7.62L22.90 7.62Q22.61 7.25 22.08 7.25L22.08 7.25L22.08 7.25Q21.55 7.25 21.26 7.62L21.26 7.62L21.26 7.62Q20.97 7.99 20.97 8.67L20.97 8.67L20.97 8.69ZM30.86 13.09L30.86 13.09Q27.89 13.09 27.89 10.30L27.89 10.30L27.89 7.71L26.78 7.71L26.78 7.71Q26.64 7.71 26.54 7.61L26.54 7.61L26.54 7.61Q26.43 7.50 26.43 7.36L26.43 7.36L26.43 6.16L26.43 6.16Q26.43 6.01 26.54 5.91L26.54 5.91L26.54 5.91Q26.64 5.81 26.78 5.81L26.78 5.81L27.89 5.81L27.89 3.50L27.89 3.50Q27.89 3.35 27.99 3.25L27.99 3.25L27.99 3.25Q28.10 3.15 28.24 3.15L28.24 3.15L29.96 3.15L29.96 3.15Q30.11 3.15 30.21 3.25L30.21 3.25L30.21 3.25Q30.31 3.35 30.31 3.50L30.31 3.50L30.31 5.81L32.06 5.81L32.06 5.81Q32.21 5.81 32.32 5.91L32.32 5.91L32.32 5.91Q32.42 6.01 32.42 6.16L32.42 6.16L32.42 7.36L32.42 7.36Q32.42 7.52 32.32 7.62L32.32 7.62L32.32 7.62Q32.21 7.71 32.06 7.71L32.06 7.71L30.31 7.71L30.31 10.09L30.31 10.09Q30.31 10.58 30.49 10.84L30.49 10.84L30.49 10.84Q30.67 11.09 31.08 11.09L31.08 11.09L32.19 11.09L32.19 11.09Q32.34 11.09 32.44 11.19L32.44 11.19L32.44 11.19Q32.54 11.30 32.54 11.45L32.54 11.45L32.54 12.74L32.54 12.74Q32.54 12.88 32.44 12.98L32.44 12.98L32.44 12.98Q32.34 13.09 32.19 13.09L32.19 13.09L30.86 13.09Z"></path></g><!----><!----></svg>